PathFileType	4	(X/Y/Z)	/Users/itak/Documents/Research/Walk-IL/dataset/trc/00415_00012.trc
DataRate	CameraRate	NumFrames	NumMarkers	Units	OrigDataRate	OrigDataStartFrame	OrigNumFrames
100.000000	100.000000	4	53	mm	100.000000	462	924
Frame#	Time	RPSI			LPSI			L3			STRN			T10			C7			CLAV			RBAK			LBAK			LSHO			LUPA			LAEL			LAOL			LWTS			LWPS			LFRA			LIFD			LHPS			LHTS			RSHO			RUPA			RAEL			RAOL			RWTS			RWPS			RFRA			RIFD			RHTS			RHPS			RBHD			LFHD			RFHD			LBHD			LHIP			RHIP			RASI			LASI			LKNE			LTHI			LANK			LTIP			LTOE			LMT1			LMT5			LHEE			RKNE			RTHI			RANK			RTIP			RTOE			RMT1			RMT5			RHEE			
		X1	Y1	Z1	X2	Y2	Z2	X3	Y3	Z3	X4	Y4	Z4	X5	Y5	Z5	X6	Y6	Z6	X7	Y7	Z7	X8	Y8	Z8	X9	Y9	Z9	X10	Y10	Z10	X11	Y11	Z11	X12	Y12	Z12	X13	Y13	Z13	X14	Y14	Z14	X15	Y15	Z15	X16	Y16	Z16	X17	Y17	Z17	X18	Y18	Z18	X19	Y19	Z19	X20	Y20	Z20	X21	Y21	Z21	X22	Y22	Z22	X23	Y23	Z23	X24	Y24	Z24	X25	Y25	Z25	X26	Y26	Z26	X27	Y27	Z27	X28	Y28	Z28	X29	Y29	Z29	X30	Y30	Z30	X31	Y31	Z31	X32	Y32	Z32	X33	Y33	Z33	X34	Y34	Z34	X35	Y35	Z35	X36	Y36	Z36	X37	Y37	Z37	X38	Y38	Z38	X39	Y39	Z39	X40	Y40	Z40	X41	Y41	Z41	X42	Y42	Z42	X43	Y43	Z43	X44	Y44	Z44	X45	Y45	Z45	X46	Y46	Z46	X47	Y47	Z47	X48	Y48	Z48	X49	Y49	Z49	X50	Y50	Z50	X51	Y51	Z51	X52	Y52	Z52	X53	Y53	Z53	

463	4.62	260.5516967773438	968.3075561523438	347.5822448730469	392.5845031738281	965.823974609375	337.8622741699219	322.5607604980469	1047.643798828125	341.0521240234375	323.6995544433594	1213.546630859375	572.9976806640625	326.4091186523438	1149.197143554688	329.4332275390625	331.4249572753906	1401.840942382812	352.0057067871094	323.0570983886719	1330.200439453125	514.5109252929688	264.8720092773438	1253.835327148438	313.2155151367188	435.2401123046875	1365.81884765625	342.7380065917969	480.5806274414062	1387.963989257812	430.2760620117188	556.3051147460938	1273.027221679688	425.0219421386719	591.033935546875	1086.082885742188	486.4835510253906	535.4342041015625	1048.886962890625	431.0512390136719	558.3804321289062	931.430419921875	652.7569580078125	620.0028686523438	896.6005249023438	610.004150390625	604.814697265625	997.6454467773438	536.05224609375	578.2985229492188	775.38427734375	740.5156860351562	616.39501953125	828.2532958984375	663.7286987304688	584.6145629882812	855.7007446289062	712.0038452148438	172.9564514160156	1380.541259765625	407.9005432128906	117.6412353515625	1315.333251953125	391.6712646484375	80.49745178222656	1054.265869140625	384.4737548828125	174.5038299560547	1044.82568359375	374.4222717285156	94.57855987548828	837.73974609375	513.18310546875	38.66432189941406	827.3063354492188	464.3827514648438	60.37491989135742	989.3322143554688	406.781005859375	83.808349609375	661.776611328125	507.0904846191406	74.67116546630859	731.9095458984375	523.8914184570312	38.65454483032227	740.1930541992188	465.6080017089844	226.2030029296875	1585.85107421875	419.5469970703125	409.3605041503906	1609.837646484375	488.3742980957031	295.2765197753906	1610.567504882812	530.9246826171875	368.8949890136719	1579.689208984375	348.4173889160156	510.0638427734375	963.0884399414062	420.9121398925781	152.8690185546875	948.4136352539062	438.7279968261719	214.5100402832031	967.0733642578125	567.069091796875	477.0763854980469	969.1652221679688	540.4024658203125	482.2256164550781	470.90087890625	504.5704650878906	497.79052734375	614.08056640625	488.3551025390625	440.00048828125	40.81667709350586	396.6386108398438	471.8236694335938	239.150390625	454.2758483886719	373.4430541992188	36.30460739135742	611.8765258789062	344.2408142089844	39.91030502319336	528.7720947265625	449.4722900390625	38.1362419128418	522.986083984375	384.6576232910156	37.57857131958008	356.6792297363281	198.3150177001953	469.9472961425781	559.0484619140625	165.9429321289062	730.9382934570312	546.4879760742188	211.0909118652344	55.46588897705078	457.5145874023438	208.7891693115234	342.5082092285156	555.698974609375	275.2119750976562	37.58349609375	635.6536865234375	306.024169921875	40.90183639526367	560.2813720703125	205.6414184570312	44.35785675048828	542.0786743164062	262.8104553222656	44.41567230224609	383.5746459960938	
464	4.63	260.2166137695312	969.63720703125	350.2525634765625	392.2256469726562	966.7297973632812	340.3653259277344	322.6886291503906	1047.58154296875	343.0285034179688	323.8304748535156	1213.898681640625	575.1834716796875	326.0358276367188	1149.495361328125	331.3865356445312	331.3215026855469	1402.12109375	354.0775451660156	323.1714477539062	1330.562133789062	516.6702270507812	264.4068298339844	1254.134643554688	315.6466064453125	435.0449523925781	1365.890747070312	344.6306762695312	480.6925354003906	1387.97607421875	432.04345703125	556.0792236328125	1272.750732421875	426.5531311035156	590.2476196289062	1085.534912109375	487.538330078125	534.3941040039062	1048.775756835938	432.3908081054688	557.5215454101562	929.0755004882812	652.6913452148438	618.8165283203125	894.4710083007812	609.2650756835938	603.8295288085938	996.4754638671875	536.5374755859375	577.0532836914062	771.8284301757812	738.3333740234375	614.992919921875	825.4271850585938	662.111572265625	583.6939697265625	852.4318237304688	710.8993530273438	172.9483337402344	1381.104614257812	410.358642578125	117.4328460693359	1315.96630859375	394.3929138183594	79.74830627441406	1054.91455078125	388.25146484375	173.661865234375	1045.283325195312	377.6718444824219	94.32382202148438	838.7680053710938	517.6416625976562	38.0743522644043	828.2431030273438	469.1946716308594	59.74108505249023	990.0225830078125	410.9317626953125	83.31000518798828	662.8536987304688	512.2222290039062	74.27548980712891	732.8384399414062	528.80224609375	38.03271865844727	741.1311645507812	470.7808837890625	226.4172668457031	1586.335693359375	422.2005310058594	409.7001647949219	1609.918212890625	490.712158203125	295.5671997070312	1610.685180664062	533.5386962890625	368.998046875	1580.26318359375	350.8519897460938	509.7554016113281	963.3941040039062	423.2398681640625	152.8611755371094	949.2854614257812	441.0881042480469	214.3866271972656	967.6029663085938	569.8367309570312	476.4389038085938	969.0411987304688	542.3833618164062	482.122314453125	471.0383605957031	504.4551391601562	497.4661865234375	614.2122802734375	488.921875	439.9729614257812	40.80562591552734	396.6255187988281	471.75	239.3358459472656	453.9476013183594	373.5033874511719	36.34797668457031	611.822509765625	344.1762084960938	39.93938446044922	528.7376098632812	449.5482177734375	38.13216781616211	522.9790649414062	384.5881652832031	37.57822418212891	356.6552429199219	197.5856628417969	469.8288269042969	556.5818481445312	165.0825347900391	731.1326904296875	547.0573120117188	211.2485809326172	55.0494270324707	457.1966857910156	208.3666381835938	342.3044738769531	553.9805297851562	275.239501953125	37.58970642089844	635.5817260742188	306.0831298828125	40.78889083862305	560.1280517578125	205.7263793945312	44.25899124145508	541.829345703125	262.8724670410156	43.73074722290039	383.3042602539062	
465	4.64	259.9850158691406	971.0440063476562	352.8129272460938	391.959716796875	967.6658935546875	342.8184814453125	322.860595703125	1047.585571289062	344.9394836425781	323.9703674316406	1214.32177734375	577.3080444335938	325.7314758300781	1149.884887695312	333.2100219726562	331.2449035644531	1402.53271484375	356.0469665527344	323.2889404296875	1330.9892578125	518.7665405273438	263.9549255371094	1254.486938476562	318.0107727050781	434.8291320800781	1366.05126953125	346.4650268554688	480.7890014648438	1388.077026367188	433.761474609375	555.8328857421875	1272.576904296875	428.0302124023438	589.4239501953125	1085.071533203125	488.4434204101562	533.2538452148438	1048.762451171875	433.5787658691406	556.6900634765625	926.6375732421875	652.333740234375	617.622802734375	892.305419921875	608.174072265625	602.8194580078125	995.3333740234375	536.7946166992188	575.710205078125	768.0963134765625	735.6219482421875	613.5931396484375	822.5243530273438	660.0447998046875	582.77685546875	849.0178833007812	709.388671875	172.9310455322266	1381.720336914062	412.7623901367188	117.2146301269531	1316.6455078125	397.0631103515625	78.99871826171875	1055.619750976562	391.994873046875	172.8187255859375	1045.780639648438	380.9253540039062	93.95806121826172	839.906982421875	522.1495361328125	37.42503356933594	829.2720336914062	474.0419921875	59.09346771240234	990.775390625	415.0611572265625	82.73460388183594	664.013671875	517.5203857421875	73.84220123291016	733.9520263671875	533.8435668945312	37.31528854370117	742.168212890625	476.0305786132812	226.5906372070312	1586.856079101562	424.7487487792969	409.9945678710938	1610.086181640625	492.9938354492188	295.824462890625	1610.878051757812	536.0468139648438	369.0680541992188	1580.856811523438	353.1856384277344	509.4930114746094	963.69970703125	425.5872192382812	152.7945404052734	950.2667846679688	443.3058166503906	214.2000427246094	968.2429809570312	572.466552734375	475.7503051757812	968.931396484375	544.3433837890625	482.0118713378906	471.2127990722656	504.2492370605469	497.1333618164062	614.3626098632812	489.4419860839844	439.9385070800781	40.79978942871094	396.6187438964844	471.65869140625	239.5365753173828	453.5730285644531	373.5485229492188	36.39298629760742	611.76416015625	344.1258544921875	39.97979736328125	528.7088012695312	449.6084899902344	38.12643432617188	522.9749145507812	384.5291137695312	37.57896423339844	356.6393432617188	196.6333618164062	469.8469848632812	554.01953125	164.0015869140625	731.5276489257812	547.69580078125	211.3663940429688	54.67882919311523	456.9667053222656	207.7150726318359	342.2692260742188	552.1431274414062	275.2153930664062	37.61549758911133	635.5446166992188	306.0930786132812	40.73334884643555	560.0357055664062	205.7483673095703	44.16568374633789	541.657958984375	262.8749694824219	43.14620590209961	383.1105651855469	
466	4.65	259.85498046875	972.48583984375	355.251708984375	391.7830505371094	968.6036376953125	345.2170715332031	323.0250244140625	1047.681396484375	346.8266296386719	324.1282653808594	1214.80224609375	579.3741455078125	325.4939575195312	1150.36279296875	334.9147644042969	331.1955871582031	1403.059326171875	357.9256896972656	323.4165649414062	1331.469116210938	520.8060302734375	263.5186767578125	1254.890869140625	320.3055725097656	434.5995483398438	1366.294799804688	348.2521667480469	480.8711853027344	1388.263061523438	435.4377746582031	555.5734252929688	1272.513427734375	429.4631652832031	588.5801391601562	1084.697143554688	489.2229309082031	532.0361938476562	1048.841674804688	434.62939453125	555.890625	924.1294555664062	651.697509765625	616.4299926757812	890.1256103515625	606.7588500976562	601.7928466796875	994.2289428710938	536.8472290039062	574.2537231445312	764.2084350585938	732.398681640625	612.2083129882812	819.5745239257812	657.5575561523438	581.8558349609375	845.4817504882812	707.4883422851562	172.9066772460938	1382.3779296875	415.1167907714844	116.9906997680664	1317.358642578125	399.6858520507812	78.24715423583984	1056.366333007812	395.7060852050781	171.9749908447266	1046.307495117188	384.1799621582031	93.49493408203125	841.1455078125	526.7017822265625	36.72927474975586	830.3828735351562	478.9216003417969	58.43367767333984	991.5831298828125	419.1697998046875	82.08455657958984	665.2476196289062	522.9822998046875	73.36785125732422	735.22607421875	539.0087280273438	36.58024978637695	743.2847290039062	481.38427734375	226.7215118408203	1587.396362304688	427.1936950683594	410.244873046875	1610.3388671875	495.2159118652344	296.0517272949219	1611.1396484375	538.45263671875	369.1061096191406	1581.455078125	355.4275207519531	509.280517578125	964.00048828125	427.9454345703125	152.6684112548828	951.3383178710938	445.3732604980469	213.9530792236328	968.9744873046875	574.9481201171875	475.0546264648438	968.844482421875	546.29638671875	481.8942565917969	471.4168395996094	503.9605102539062	496.8009338378906	614.5267944335938	489.9211120605469	439.8982238769531	40.79829788208008	396.6167602539062	471.5606994628906	239.7538299560547	453.1552734375	373.5761108398438	36.43724822998047	611.7011108398438	344.095947265625	40.03468322753906	528.6876220703125	449.6550598144531	38.11877822875977	522.9739990234375	384.4794006347656	37.58322525024414	356.62939453125	195.4663238525391	469.9747619628906	551.3944091796875	162.7192993164062	732.1209106445312	548.4959716796875	211.4325103759766	54.35168838500977	456.8041687011719	206.8533477783203	342.3836975097656	550.1934814453125	275.1427612304688	37.6511116027832	635.521728515625	306.0641784667969	40.73104095458984	559.9807739257812	205.7111206054688	44.07718276977539	541.5426635742188	262.8200378417969	42.66436386108398	382.9763488769531	
